# xmcd
#
# Track frame offsets:
#	150
#	18543
#	36820
#	50860
#	66983
#	82173
#	99890
#	117885
#	133158
#	153263
#	168278
#	183650
#
# Disc length: 2660 seconds
#
# Revision: 8
# Processed by: cddbd v1.5.2PL0 Copyright (c) Steve Scherf et al.
# Submitted via: EZCDAudioConverter 8.0.2.1
#
DISCID=a40a620c
DTITLE=LEANDRO and LEONARDO - PAZ NA CAMA [CD 2-07-800-353) GEL CHANTECLER (VAT)
DYEAR=1991
DGENRE=SERTANEJO
TTITLE0=SONHO POR SONHO (BY GILMAR SINISTRO)
TTITLE1=GOSTOSO SENTIMENTO (BY GILMAR SINISTRO)
TTITLE2=NÃO APRENDI A DIZER ADEUS (BY GILMAR SINISTRO)
TTITLE3=BATE CORAÇÃO (BY GILMAR SINISTRO)
TTITLE4=SABOR DE MIM (BY GILMAR SINISTRO)
TTITLE5=ME DÊ UM SINAL (BY GILMAR SINISTRO)
TTITLE6=MENSAGEM (BY GILMAR SINISTRO)
TTITLE7=ESTOU NA MÃO DESTA MULHER (BY GILMAR SINISTRO)
TTITLE8=A ROTINA (FIM DE SEMANA) (BY GILMAR SINISTRO)
TTITLE9=NÃO OLHE ASSIM (BY GILMAR SINISTRO)
TTITLE10=AMORES SÃO COISAS DA VIDA (BY GILMAR SINISTRO)
TTITLE11=PAZ NA CAMA (BY GILMAR SINISTRO)
EXTD=
EXTT0=
EXTT1=
EXTT2=
EXTT3=
EXTT4=
EXTT5=
EXTT6=
EXTT7=
EXTT8=
EXTT9=
EXTT10=
EXTT11=
PLAYORDER=
